# xmcd
#
# Track frame offsets:
#	150
#	14654
#	28896
#	50394
#	73700
#	91163
#	113805
#	132461
#	152322
#	169387
#	185465
#	200578
#	216221
#	234303
#	253674
#
# Disc length: 3605 seconds
#
# Revision: 1
# Processed by: cddbd v1.5.2PL0 Copyright (c) Steve Scherf et al.
# Submitted via: audiograbber 1.83.01
#
DISCID=d30e130f
DTITLE=WYNONNA - CHARBUSTER
DYEAR=2015
DGENRE=Country
TTITLE0=WYNONNA - I HERE YOU KNOCKING
TTITLE1=WYNONNA - A LITTLE BIT OF LOVE(GOES A LONG,LONG WAY)
TTITLE2=WYNONNA - FLIES ON THE BUTTER(YOU CAN'T GO HOME AGAIN)
TTITLE3=WYNONNA - SING
TTITLE4=WYNONNA - WHAT THE WORLD NEEDS
TTITLE5=WYNONNA - ALWAYS WILL
TTITLE6=WYNONNA - A BAD GOODBYE
TTITLE7=WYNONNA - SOMEBODY TO LOVE YOU
TTITLE8=WYNONNA - ATTITUDE
TTITLE9=WYNONNA - WOMAN TO WOMEN
TTITLE10=WYNONNA - GIRL THANG
TTITLE11=WYNONNA - CAN'T NOBODY LOVE YOU (LIKE I DO)
TTITLE12=WYNONNA - WITHOUT YOUR LOVE...I'M GOING NOWHERE
TTITLE13=WYNONNA - HEAVEN HELP ME
TTITLE14=WYNONNA - LET'S MAKE A BABY KING
EXTD=
EXTT0=
EXTT1=
EXTT2=
EXTT3=
EXTT4=
EXTT5=
EXTT6=
EXTT7=
EXTT8=
EXTT9=
EXTT10=
EXTT11=
EXTT12=
EXTT13=
EXTT14=
PLAYORDER=
